REM DIRINDEX 1\3,1\2\4,1\2\5,1\2\6
REM DIRNAME cjc137,folder01,folder02,folder03,folder04,folder05
TITLE ""
FILE "013.mp3" MP3
  TRACK 01 AUDIO
    TITLE "4:cjc137_0507"
    INDEX 01 00:00:00
  TRACK 02 AUDIO
    TITLE "0:"
    INDEX 01 00:01:13
  TRACK 03 AUDIO
    TITLE "6:cjc137_0508"
    INDEX 01 00:01:28
  TRACK 04 AUDIO
    TITLE "0:"
    INDEX 01 00:02:30
  TRACK 05 AUDIO
    TITLE "5:cjc137_0509"
    INDEX 01 00:02:43
  TRACK 06 AUDIO
    TITLE "0:"
    INDEX 01 00:03:53
  TRACK 07 AUDIO
    TITLE "4:cjc137_0510"
    INDEX 01 00:04:68
  TRACK 08 AUDIO
    TITLE "0:"
    INDEX 01 00:06:08
  TRACK 09 AUDIO
    TITLE "6:cjc137_0511"
    INDEX 01 00:06:18
  TRACK 10 AUDIO
    TITLE "0:"
    INDEX 01 00:07:05
  TRACK 11 AUDIO
    TITLE "5:cjc137_0512"
    INDEX 01 00:07:21
  TRACK 12 AUDIO
    TITLE "0:"
    INDEX 01 00:08:36
  TRACK 13 AUDIO
    TITLE "4:cjc137_0513"
    INDEX 01 00:09:42
  TRACK 14 AUDIO
    TITLE "0:"
    INDEX 01 00:10:41
  TRACK 15 AUDIO
    TITLE "6:cjc137_0514"
    INDEX 01 00:10:51
  TRACK 16 AUDIO
    TITLE "0:"
    INDEX 01 00:12:32
  TRACK 17 AUDIO
    TITLE "5:cjc137_0515"
    INDEX 01 00:12:42
  TRACK 18 AUDIO
    TITLE "0:"
    INDEX 01 00:13:39
  TRACK 19 AUDIO
    TITLE "4:cjc137_0516"
    INDEX 01 00:14:49
  TRACK 20 AUDIO
    TITLE "0:"
    INDEX 01 00:15:52
  TRACK 21 AUDIO
    TITLE "6:cjc137_0517"
    INDEX 01 00:15:64
  TRACK 22 AUDIO
    TITLE "0:"
    INDEX 01 00:16:51
  TRACK 23 AUDIO
    TITLE "5:cjc137_0518"
    INDEX 01 00:16:63
  TRACK 24 AUDIO
    TITLE "0:"
    INDEX 01 00:17:65
  TRACK 25 AUDIO
    TITLE "4:cjc137_0519"
    INDEX 01 00:18:74
  TRACK 26 AUDIO
    TITLE "0:"
    INDEX 01 00:20:06
  TRACK 27 AUDIO
    TITLE "6:cjc137_0520"
    INDEX 01 00:20:18
  TRACK 28 AUDIO
    TITLE "0:"
    INDEX 01 00:21:11
  TRACK 29 AUDIO
    TITLE "5:cjc137_0521"
    INDEX 01 00:21:21
  TRACK 30 AUDIO
    TITLE "0:"
    INDEX 01 00:22:25
  TRACK 31 AUDIO
    TITLE "4:cjc137_0522"
    INDEX 01 00:23:34
  TRACK 32 AUDIO
    TITLE "0:"
    INDEX 01 00:24:35
  TRACK 33 AUDIO
    TITLE "6:cjc137_0523"
    INDEX 01 00:24:49
  TRACK 34 AUDIO
    TITLE "0:"
    INDEX 01 00:25:29
  TRACK 35 AUDIO
    TITLE "5:cjc137_0524"
    INDEX 01 00:25:45
  TRACK 36 AUDIO
    TITLE "0:"
    INDEX 01 00:26:46
  TRACK 37 AUDIO
    TITLE "4:cjc137_0525"
    INDEX 01 00:27:55
  TRACK 38 AUDIO
    TITLE "0:"
    INDEX 01 00:29:05
  TRACK 39 AUDIO
    TITLE "6:cjc137_0526"
    INDEX 01 00:29:17
  TRACK 40 AUDIO
    TITLE "0:"
    INDEX 01 00:30:12
  TRACK 41 AUDIO
    TITLE "5:cjc137_0527"
    INDEX 01 00:30:24
  TRACK 42 AUDIO
    TITLE "0:"
    INDEX 01 00:31:49
  TRACK 43 AUDIO
    TITLE "4:cjc137_0528"
    INDEX 01 00:32:56
  TRACK 44 AUDIO
    TITLE "0:"
    INDEX 01 00:33:60
  TRACK 45 AUDIO
    TITLE "6:cjc137_0529"
    INDEX 01 00:34:00
  TRACK 46 AUDIO
    TITLE "0:"
    INDEX 01 00:35:31
  TRACK 47 AUDIO
    TITLE "5:cjc137_0530"
    INDEX 01 00:35:43
  TRACK 48 AUDIO
    TITLE "0:"
    INDEX 01 00:36:48
  TRACK 49 AUDIO
    TITLE "4:cjc137_0531"
    INDEX 01 00:37:57
  TRACK 50 AUDIO
    TITLE "0:"
    INDEX 01 00:38:61
  TRACK 51 AUDIO
    TITLE "6:cjc137_0532"
    INDEX 01 00:38:73
  TRACK 52 AUDIO
    TITLE "0:"
    INDEX 01 00:40:07
  TRACK 53 AUDIO
    TITLE "5:cjc137_0533"
    INDEX 01 00:40:17
  TRACK 54 AUDIO
    TITLE "0:"
    INDEX 01 00:41:20
  TRACK 55 AUDIO
    TITLE "4:cjc137_0534"
    INDEX 01 00:42:27
  TRACK 56 AUDIO
    TITLE "0:"
    INDEX 01 00:43:44
  TRACK 57 AUDIO
    TITLE "6:cjc137_0535"
    INDEX 01 00:43:56
  TRACK 58 AUDIO
    TITLE "0:"
    INDEX 01 00:44:67
  TRACK 59 AUDIO
    TITLE "5:cjc137_0536"
    INDEX 01 00:45:04
  TRACK 60 AUDIO
    TITLE "0:"
    INDEX 01 00:46:21
  TRACK 61 AUDIO
    TITLE "4:cjc137_0537"
    INDEX 01 00:47:28
  TRACK 62 AUDIO
    TITLE "0:"
    INDEX 01 00:48:38
  TRACK 63 AUDIO
    TITLE "6:cjc137_0538"
    INDEX 01 00:48:51
  TRACK 64 AUDIO
    TITLE "0:"
    INDEX 01 00:49:57
  TRACK 65 AUDIO
    TITLE "5:cjc137_0539"
    INDEX 01 00:49:69
  TRACK 66 AUDIO
    TITLE "0:"
    INDEX 01 00:51:01
  TRACK 67 AUDIO
    TITLE "4:cjc137_0540"
    INDEX 01 00:52:10
  TRACK 68 AUDIO
    TITLE "0:"
    INDEX 01 00:53:33
  TRACK 69 AUDIO
    TITLE "6:cjc137_0541"
    INDEX 01 00:53:43
  TRACK 70 AUDIO
    TITLE "0:"
    INDEX 01 00:55:26
  TRACK 71 AUDIO
    TITLE "5:cjc137_0542"
    INDEX 01 00:55:36
  TRACK 72 AUDIO
    TITLE "0:"
    INDEX 01 00:56:57
  TRACK 73 AUDIO
    TITLE "4:cjc137_0543"
    INDEX 01 00:57:64
  TRACK 74 AUDIO
    TITLE "0:"
    INDEX 01 00:58:67
  TRACK 75 AUDIO
    TITLE "6:cjc137_0544"
    INDEX 01 00:59:06
  TRACK 76 AUDIO
    TITLE "0:"
    INDEX 01 01:00:12
  TRACK 77 AUDIO
    TITLE "5:cjc137_0545"
    INDEX 01 01:00:23
  TRACK 78 AUDIO
    TITLE "0:"
    INDEX 01 01:01:23
  TRACK 79 AUDIO
    TITLE "4:cjc137_0546"
    INDEX 01 01:02:34
  TRACK 80 AUDIO
    TITLE "0:"
    INDEX 01 01:03:59
  TRACK 81 AUDIO
    TITLE "6:cjc137_0547"
    INDEX 01 01:03:73
  TRACK 82 AUDIO
    TITLE "0:"
    INDEX 01 01:05:24
  TRACK 83 AUDIO
    TITLE "5:cjc137_0548"
    INDEX 01 01:05:36
  TRACK 84 AUDIO
    TITLE "0:"
    INDEX 01 01:06:61
